<svg xmlns="http://www.w3.org/2000/svg" xmlns:xlink="http://www.w3.org/1999/xlink" width="1920" height="1080" viewBox="0 0 1920 1080"><defs><filter id="a"><feOffset dy="3" input="SourceAlpha"/><feGaussianBlur stdDeviation="3" result="b"/><feFlood flood-opacity="0.161" result="c"/><feComposite operator="out" in="SourceGraphic" in2="b"/><feComposite operator="in" in="c"/><feComposite operator="in" in2="SourceGraphic"/></filter><clipPath id="e"><rect width="1920" height="1080"/></clipPath></defs><g id="d" clip-path="url(#e)"><rect width="1920" height="1080" fill="#f5f5f5"/><g data-type="innerShadowGroup"><path d="M-.6,1102s-37.364-380.788,429.3-526.242S1088.3,928,1525.216,700,1922.41,136,1922.41,136v944Z" transform="translate(1.596)" fill="#2e74ff"/><g transform="matrix(1, 0, 0, 1, 0, 0)" filter="url(#a)"><path d="M-.6,1102s-37.364-380.788,429.3-526.242S1088.3,928,1525.216,700,1922.41,136,1922.41,136v944Z" transform="translate(1.6)" fill="#fff"/></g></g><path d="M-3.152,973.939s51.117-369.3,490.126-461.63S1193,818.99,1629.6,627.717s291.43-473.171,291.43-473.171V975.758Z" transform="translate(3.152 106.061)" fill="#144cbb"/></g></svg>